<?xml version="1.0" encoding="utf-8"?><svg viewBox="0 0 502.66 502.66" xmlns="http://www.w3.org/2000/svg" xmlns:xlink="http://www.w3.org/1999/xlink"><style>:root>svg{display:none}:root>svg:target{display:block}</style><svg viewBox="0 0 502.664 502.664" id="icon" xmlns="http://www.w3.org/2000/svg"><path d="M153.821 358.226L0 274.337v-46.463l153.821-83.414v54.574L46.636 250.523l107.185 53.431v54.272zm26.273 29.358L282.103 115.08h32.227L212.084 387.584h-31.99zm168.749-29.358v-54.272l107.164-52.999-107.164-52.59v-53.927l153.821 83.522v46.183l-153.821 84.083z"/></svg><svg viewBox="0 0 45 53" id="logo" xmlns="http://www.w3.org/2000/svg"><path d="M4 28v21h21"/><path d="M41 28v21H20m21-21L28.859 15.467 17 4"/><path d="M4 28l12.141-12.533L28 4"/></svg><svg viewBox="0 0 27 42" id="play" xmlns="http://www.w3.org/2000/svg"><path d="M0 .26L27 21 0 41.74V.26z"/></svg></svg>